<?xml version="1.0" standalone="no"?>
<!DOCTYPE svg PUBLIC "-//W3C//DTD SVG 20010904//EN"
 "http://www.w3.org/TR/2001/REC-SVG-20010904/DTD/svg10.dtd">
<svg version="1.0" xmlns="http://www.w3.org/2000/svg"
 width="980.000000pt" height="970.000000pt" viewBox="0 0 980.000000 970.000000"
 preserveAspectRatio="xMidYMid meet">
<metadata>
Created by potrace 1.15, written by Peter Selinger 2001-2017
</metadata>
<g transform="translate(0.000000,970.000000) scale(0.100000,-0.100000)"
fill="#ffffff" stroke="none">
<path d="M8837 9685 c-237 -45 -359 -116 -588 -344 -159 -158 -169 -174 -169
-269 l0 -73 509 -510 510 -509 81 0 c50 0 91 5 108 14 47 24 314 307 370 391
128 194 174 456 116 670 -36 136 -124 284 -231 392 -182 181 -477 281 -706
238z"/>
<path d="M2645 9020 l-620 -7 -128 -27 c-718 -149 -1346 -642 -1667 -1308 -78
-162 -149 -366 -179 -513 -46 -227 -46 -258 -44 -2800 l1 -2400 51 -172 c111
-377 206 -580 389 -827 91 -122 342 -376 470 -474 244 -187 525 -325 831 -408
227 -61 252 -63 826 -75 667 -14 4454 -5 4627 10 359 32 796 196 1103 414 447
318 787 794 920 1290 40 147 55 262 65 505 5 125 10 1001 10 1947 l0 1720
-581 -581 -581 -581 -8 -1264 c-6 -776 -13 -1293 -20 -1339 -35 -252 -219
-533 -469 -719 -146 -108 -338 -186 -522 -214 -66 -9 -621 -11 -2536 -9
l-2452 2 -121 45 c-210 77 -335 149 -469 271 -127 116 -257 313 -310 472 -38
111 -44 494 -44 2537 0 2083 6 2392 47 2512 80 234 260 474 460 611 103 72
288 159 373 177 135 28 395 35 1623 41 l1238 7 584 584 583 583 -1415 -2
c-778 -1 -1694 -5 -2035 -8z"/>
<path d="M7431 8488 c-95 -52 -3134 -3081 -3527 -3517 l-105 -116 3 -61 c3
-55 9 -68 48 -120 25 -33 252 -267 504 -521 l459 -463 96 0 96 0 1441 1443
c1481 1482 1948 1955 2092 2115 82 91 82 92 82 147 0 70 4 66 -425 509 -295
306 -576 573 -622 592 -47 20 -94 17 -142 -8z"/>
<path d="M3266 4100 c-51 -16 -78 -52 -151 -205 -162 -335 -489 -1129 -489
-1187 0 -25 9 -51 30 -80 33 -47 124 -108 162 -108 52 0 932 368 1259 527 108
52 132 82 140 171 l5 57 -68 80 c-108 128 -674 690 -728 724 -52 32 -100 39
-160 21z"/>
</g>
</svg>
