<?xml version="1.0" standalone="no"?>
<!DOCTYPE svg PUBLIC "-//W3C//DTD SVG 20010904//EN"
 "http://www.w3.org/TR/2001/REC-SVG-20010904/DTD/svg10.dtd">
<svg version="1.0" xmlns="http://www.w3.org/2000/svg"
 width="980.000000pt" height="980.000000pt" viewBox="0 0 980.000000 980.000000"
 preserveAspectRatio="xMidYMid meet">
<metadata>
Created by potrace 1.15, written by Peter Selinger 2001-2017
</metadata>
<g transform="translate(0.000000,980.000000) scale(0.100000,-0.100000)"
fill="#000000" stroke="none">
<path d="M4560 9789 c-1035 -75 -1998 -463 -2800 -1128 -150 -123 -501 -475
-622 -621 -881 -1068 -1270 -2403 -1098 -3765 119 -934 501 -1801 1124 -2545
98 -117 370 -393 496 -504 1328 -1166 3158 -1531 4825 -962 895 305 1700 879
2281 1627 735 946 1100 2126 1024 3314 -70 1094 -491 2109 -1216 2935 -112
128 -386 398 -509 501 -763 642 -1665 1026 -2665 1134 -174 19 -664 27 -840
14z m840 -443 c537 -64 1016 -206 1489 -441 1246 -621 2130 -1776 2400 -3140
60 -303 76 -487 76 -865 0 -378 -16 -562 -76 -865 -220 -1109 -846 -2086
-1768 -2758 -419 -306 -936 -554 -1441 -691 -378 -103 -677 -145 -1090 -153
-549 -11 -1005 58 -1510 227 -1480 495 -2601 1735 -2944 3255 -76 341 -101
581 -101 985 0 344 8 457 51 720 75 457 204 857 409 1269 694 1393 2036 2314
3595 2466 194 18 721 13 910 -9z"/>
<path d="M4773 8186 c-152 -37 -300 -157 -366 -296 -46 -99 -57 -156 -57 -305
l0 -125 -763 0 c-728 0 -767 -1 -841 -20 -107 -27 -169 -63 -251 -145 -80 -79
-127 -160 -150 -256 -18 -78 -22 -520 -4 -566 14 -38 57 -83 96 -99 49 -21
4891 -21 4931 0 36 19 78 65 91 99 7 17 11 123 11 269 0 267 -7 317 -63 423
-44 84 -155 194 -237 233 -125 61 -129 62 -962 62 l-758 0 0 125 c0 68 -5 148
-11 177 -41 199 -214 376 -411 423 -76 18 -184 18 -255 1z m194 -367 c34 -13
80 -55 99 -91 10 -19 14 -63 14 -148 l0 -120 -180 0 -180 0 0 120 c0 85 4 129
14 148 18 35 64 78 96 91 34 13 102 13 137 0z m2020 -740 c34 -13 80 -55 99
-91 10 -19 14 -63 14 -148 l0 -120 -2200 0 -2200 0 0 120 c0 85 4 129 14 148
18 35 64 78 96 91 36 14 4139 15 4177 0z"/>
<path d="M3035 5901 c-49 -22 -91 -69 -105 -119 -8 -26 -10 -537 -8 -1722 l3
-1685 23 -80 c94 -335 342 -580 677 -671 67 -18 125 -19 1325 -19 l1255 0 89
28 c342 107 572 354 652 702 18 76 19 159 19 1760 0 1636 0 1681 -19 1719 -24
47 -84 92 -136 101 -70 12 -155 -28 -188 -88 -16 -30 -17 -142 -22 -1722 l-5
-1690 -26 -71 c-67 -183 -227 -327 -403 -364 -35 -7 -434 -9 -1251 -8 l-1200
3 -70 29 c-87 36 -138 70 -204 138 -62 62 -124 184 -140 272 -8 41 -11 582
-11 1708 0 1800 4 1684 -59 1743 -57 55 -128 67 -196 36z"/>
<path d="M3945 5254 c-45 -23 -66 -45 -86 -89 -18 -38 -19 -100 -19 -1360 0
-1259 1 -1322 19 -1360 20 -45 70 -92 107 -101 51 -13 131 1 168 30 77 58 71
-67 71 1432 l0 1340 -28 42 c-15 23 -45 51 -67 62 -47 24 -123 26 -165 4z"/>
<path d="M4865 5254 c-43 -22 -64 -44 -86 -86 -19 -37 -19 -77 -17 -1376 l3
-1339 29 -37 c42 -55 81 -76 146 -76 70 0 115 23 155 79 l30 43 0 1336 c0
1300 -1 1338 -19 1376 -28 56 -95 96 -160 96 -28 0 -64 -7 -81 -16z"/>
<path d="M5785 5256 c-37 -17 -80 -62 -94 -99 -8 -20 -11 -441 -11 -1352 0
-911 3 -1332 11 -1352 13 -34 55 -80 91 -99 39 -20 122 -18 168 6 47 24 75 62
90 121 7 31 10 429 8 1349 l-3 1305 -25 43 c-46 80 -151 115 -235 78z"/>
</g>
</svg>