<?xml version="1.0" standalone="no"?>
<!DOCTYPE svg PUBLIC "-//W3C//DTD SVG 20010904//EN"
 "http://www.w3.org/TR/2001/REC-SVG-20010904/DTD/svg10.dtd">
<svg version="1.0" xmlns="http://www.w3.org/2000/svg"
 width="512.000000pt" height="512.000000pt" viewBox="0 0 512.000000 512.000000"
 preserveAspectRatio="xMidYMid meet">
<metadata>
Created by potrace 1.15, written by Peter Selinger 2001-2017
</metadata>
<g transform="translate(0.000000,512.000000) scale(0.100000,-0.100000)"
fill="#ffffff" stroke="none">
<path d="M2943 5108 c-5 -7 -15 -44 -22 -83 -7 -38 -32 -154 -57 -256 -24
-102 -44 -196 -44 -210 l-1 -24 -17 21 c-37 44 -84 53 -111 20 -6 -7 -16 -40
-22 -72 -6 -32 -32 -112 -59 -179 -26 -66 -53 -139 -60 -162 -16 -51 -30 -56
-30 -10 0 67 -22 150 -71 264 -28 65 -59 150 -69 189 -24 98 -84 210 -118 222
-74 26 -127 -55 -168 -250 l-18 -87 -16 52 c-9 29 -40 98 -68 154 -38 74 -62
110 -93 135 -23 18 -68 57 -99 86 -76 69 -92 69 -84 -2 8 -68 -12 -132 -78
-248 -46 -81 -75 -165 -93 -270 -5 -35 -9 -38 -38 -38 l-33 0 -11 74 c-13 92
-39 145 -84 171 -34 19 -35 21 -26 60 9 44 1 149 -14 177 -11 21 -59 24 -77 6
-17 -17 -15 -59 7 -150 18 -74 18 -77 0 -81 -31 -8 -39 -48 -29 -142 5 -48 14
-102 21 -122 14 -43 1 -56 -46 -48 -19 3 -39 0 -50 -9 -18 -13 -18 -16 -2 -57
9 -24 19 -66 22 -94 3 -27 8 -60 10 -71 4 -17 -1 -23 -19 -28 -29 -7 -34 -20
-42 -105 -5 -51 -2 -84 15 -144 11 -42 21 -94 21 -115 0 -20 7 -69 15 -107 8
-39 15 -90 15 -113 0 -24 9 -87 20 -141 11 -53 28 -175 39 -271 11 -96 26
-204 34 -240 l14 -65 -80 1 -79 0 -19 -43 c-14 -33 -20 -80 -25 -220 -6 -164
-4 -190 21 -333 14 -85 31 -213 36 -285 20 -253 27 -331 38 -420 11 -90 22
-182 61 -525 43 -372 54 -414 145 -523 62 -74 228 -200 322 -244 95 -44 303
-100 417 -113 50 -6 121 -17 158 -25 115 -25 211 -21 586 29 71 9 92 9 92 0 0
-18 18 -21 110 -19 82 3 91 6 210 63 204 99 287 201 311 382 19 152 104 732
172 1185 50 326 63 527 49 746 -17 277 -40 313 -193 307 l-76 -3 9 35 c5 19
29 99 53 177 25 78 51 184 60 235 8 51 27 125 40 163 24 67 84 306 125 500 26
121 53 278 91 525 17 113 42 277 55 365 26 167 31 233 17 245 -14 14 -115 40
-234 60 -283 47 -393 62 -534 70 -90 5 -167 15 -194 24 -52 19 -95 20 -108 4z
m312 -118 c66 -5 184 -20 262 -32 118 -20 140 -26 133 -38 -33 -60 -156 -549
-214 -856 -25 -126 -45 -222 -45 -213 -1 9 -7 22 -14 28 -9 7 -16 47 -20 118
-6 94 -24 242 -56 460 -12 78 -33 110 -82 123 -30 8 -46 7 -74 -4 -30 -13 -41
-27 -66 -83 -17 -37 -53 -116 -81 -175 -48 -101 -68 -128 -68 -94 0 8 -12 41
-26 74 l-25 59 36 174 c20 96 47 217 60 269 13 52 29 125 35 161 l12 66 56
-13 c31 -8 111 -18 177 -24z m650 -100 c24 -9 27 -14 21 -43 -13 -63 -36 -192
-36 -206 0 -9 -8 -11 -27 -6 -69 18 -134 22 -151 9 -29 -22 -3 -44 81 -71 63
-19 77 -27 73 -41 -3 -9 -10 -47 -17 -85 l-11 -68 -32 5 c-102 16 -134 16
-145 2 -27 -32 -9 -48 78 -69 l83 -21 -7 -60 c-3 -34 -11 -82 -16 -107 l-10
-46 -76 -6 c-129 -10 -140 -60 -15 -73 71 -8 70 -5 51 -123 l-12 -69 -59 20
c-54 18 -61 19 -75 5 -9 -8 -13 -22 -10 -30 5 -13 85 -71 108 -79 6 -2 3 -32
-6 -73 -26 -114 -22 -108 -63 -100 -21 4 -42 11 -48 16 -18 15 -44 -1 -44 -26
0 -25 20 -45 72 -71 l37 -19 -25 -75 c-14 -41 -27 -76 -29 -78 -7 -7 -91 21
-107 35 -24 22 -48 9 -48 -25 0 -35 19 -53 85 -84 42 -19 50 -27 47 -48 -3
-35 -33 -150 -39 -150 -2 0 -26 10 -54 21 -40 18 -52 19 -64 9 -27 -22 -13
-52 41 -89 l51 -35 -22 -70 c-24 -80 -33 -84 -90 -45 -34 24 -35 25 -35 94 0
39 5 111 10 160 5 50 12 162 16 250 3 100 12 188 24 235 10 41 23 107 29 145
7 39 54 241 106 450 129 520 155 640 155 711 l0 61 89 -13 c48 -8 101 -18 116
-24z m-1978 -236 c75 -156 110 -337 84 -440 -12 -46 -17 -100 -30 -314 l-6
-95 -89 -13 c-60 -9 -96 -11 -110 -4 -21 10 -46 86 -76 234 -7 38 -19 63 -32
72 -17 12 -22 31 -30 108 -15 158 4 257 82 420 36 75 52 122 56 167 l7 62 45
-43 c31 -30 61 -77 99 -154z m-561 -95 c16 -17 20 -40 22 -125 4 -99 3 -104
-16 -104 -11 0 -27 -2 -35 -6 -11 -4 -15 10 -20 69 -3 40 -11 92 -18 115 -10
33 -9 44 1 57 17 21 43 19 66 -6z m1009 -204 c27 -67 48 -142 54 -191 7 -45
16 -95 20 -112 7 -22 6 -34 -4 -42 -17 -14 -38 -5 -64 30 -17 23 -29 30 -57
30 -32 0 -36 -4 -54 -44 -19 -46 -59 -76 -100 -76 -24 0 -52 43 -76 112 -15
46 -15 49 26 195 23 81 43 154 46 161 2 6 18 12 36 12 41 0 73 21 95 63 l16
32 10 -30 c5 -16 29 -80 52 -140z m-872 -127 c4 -29 10 -72 13 -95 6 -39 5
-43 -19 -52 -14 -6 -70 -13 -124 -17 l-99 -7 -12 89 c-9 65 -9 90 0 95 17 11
131 21 150 14 10 -4 27 0 40 9 36 26 45 19 51 -36z m1751 -62 c3 -49 6 -118 6
-153 0 -56 -2 -63 -19 -63 -32 0 -152 28 -215 50 -33 11 -67 20 -76 20 -14 0
-2 27 52 118 l70 117 88 0 87 0 7 -89z m-483 19 l66 0 16 -62 c14 -54 14 -67
2 -96 -8 -18 -21 -39 -29 -46 -20 -17 -46 -103 -46 -153 0 -35 -2 -38 -29 -38
-16 0 -48 -7 -71 -15 -66 -23 -90 -20 -90 11 0 15 -7 68 -16 119 l-16 93 25
48 c13 27 35 77 47 112 l23 62 26 -17 c18 -12 46 -18 92 -18z m-1101 -475 c6
-63 12 -128 15 -145 34 -204 95 -617 100 -675 6 -72 30 -251 41 -297 4 -23 3
-23 -98 -23 -70 0 -124 6 -168 19 -36 10 -86 21 -112 25 l-47 7 5 42 c4 25 -3
83 -16 147 -12 58 -28 175 -36 260 -8 85 -23 202 -34 260 -10 58 -26 170 -35
250 -9 80 -25 181 -36 225 -10 44 -21 99 -25 122 l-6 41 43 6 c68 8 229 20
281 20 26 1 53 7 60 14 17 17 53 -142 68 -298z m780 205 c16 3 31 2 35 -4 11
-20 28 -332 30 -591 2 -140 8 -309 15 -375 7 -75 9 -167 5 -247 l-7 -128 -32
-4 c-95 -14 -126 -15 -126 -3 0 6 -7 62 -15 122 -12 85 -15 232 -15 651 0 298
3 555 6 572 l6 30 35 -15 c20 -8 47 -11 63 -8z m567 -10 c46 -14 83 -31 83
-38 0 -68 -24 -366 -40 -493 -21 -172 -45 -713 -35 -776 l7 -38 -116 0 c-64 0
-116 3 -116 8 1 4 5 27 10 52 16 74 31 344 40 725 5 198 13 398 19 445 5 47
10 90 10 97 1 15 29 43 44 43 6 0 48 -11 94 -25z m-728 -565 c-4 -311 -5 -613
-1 -672 l7 -108 -93 0 -93 0 6 60 c3 33 8 88 11 121 6 66 -5 216 -38 534 -15
155 -19 243 -16 390 3 105 8 197 12 206 6 14 11 14 46 -3 32 -16 45 -17 77 -9
21 6 49 20 63 30 14 11 25 19 26 18 1 -1 -2 -256 -7 -567z m929 515 c25 -4 42
-12 42 -20 0 -8 10 -21 22 -29 21 -15 21 -18 14 -223 -4 -114 -12 -266 -17
-338 -6 -71 -15 -209 -20 -305 -5 -96 -12 -221 -15 -277 l-6 -103 -73 0 -72 0
-7 38 c-17 106 -4 511 28 807 8 77 18 213 21 303 7 144 9 162 24 158 9 -2 35
-8 59 -11z m-1234 -342 c3 -115 8 -236 12 -269 l6 -62 -33 -11 c-48 -15 -129
-30 -129 -22 0 3 -16 116 -35 251 -19 135 -35 255 -35 268 0 18 6 22 33 22 17
1 59 7 92 14 33 8 65 14 71 15 8 1 13 -62 18 -206z m774 -140 c-3 -186 -10
-445 -13 -575 l-8 -238 -42 0 c-30 0 -45 5 -49 16 -3 9 -6 70 -7 137 0 67 -5
160 -10 207 -5 47 -14 213 -19 370 -5 157 -12 308 -16 336 l-6 51 28 -4 c21
-3 149 28 149 36 0 1 -3 -151 -7 -336z m-729 -548 c6 -104 13 -210 16 -234 l5
-43 -55 4 c-30 3 -58 7 -61 11 -4 3 -15 71 -25 150 -11 80 -27 194 -37 254
l-18 109 51 -4 c27 -2 61 1 75 6 23 9 25 7 32 -27 3 -20 11 -121 17 -226z
m-776 -211 c26 -9 52 -14 59 -12 7 3 21 -6 31 -19 24 -30 40 -38 156 -78 76
-26 125 -36 231 -45 127 -10 595 -33 650 -31 14 1 219 1 456 0 465 -1 520 4
670 54 38 13 87 27 109 31 22 4 55 15 73 23 18 9 35 13 39 10 3 -4 2 -62 -3
-129 l-9 -123 -30 -9 c-16 -5 -88 -32 -160 -59 -222 -84 -247 -88 -540 -98
-143 -4 -315 -11 -382 -15 -98 -6 -126 -4 -139 7 -13 11 -18 11 -21 2 -8 -22
-163 -16 -348 13 -222 34 -215 32 -215 49 0 8 -7 15 -15 15 -8 0 -15 -6 -15
-14 0 -11 -10 -12 -62 0 -35 7 -95 24 -134 37 -39 14 -95 28 -125 32 -79 10
-239 88 -261 126 -10 17 -22 27 -28 24 -6 -4 -8 -11 -4 -16 3 -6 -3 -5 -15 3
-19 12 -21 21 -20 115 0 56 -2 107 -6 113 -9 14 4 13 58 -6z m273 -439 c23 -3
79 -19 125 -35 62 -22 76 -30 53 -30 -39 0 -65 -20 -157 -124 l-74 -83 -23 71
c-12 39 -33 92 -47 119 l-24 47 28 25 c19 17 36 23 53 20 14 -2 43 -7 66 -10z
m2070 -42 c13 -45 49 -104 71 -119 25 -16 25 -19 19 -93 -4 -42 -10 -86 -13
-99 -3 -12 -48 -59 -101 -104 l-95 -82 -81 85 c-45 47 -99 111 -121 143 l-40
59 90 83 c74 69 104 89 165 114 88 34 99 36 106 13z m-2212 -151 c39 -103 44
-126 34 -140 -7 -10 -35 -46 -63 -80 -60 -77 -58 -78 -82 115 -13 114 -14 138
-2 160 15 29 58 77 64 71 2 -2 24 -59 49 -126z m436 114 c35 -6 36 -8 74 -117
l39 -111 -90 -87 c-49 -47 -116 -119 -148 -159 l-59 -74 -14 28 c-15 28 -15
29 66 106 56 53 80 82 76 92 -13 34 -57 15 -131 -57 l-52 -51 -37 77 -36 77
48 58 c27 31 82 89 121 128 40 39 73 79 73 88 0 12 6 16 18 13 9 -3 33 -8 52
-11z m270 -40 l75 -12 -35 -18 c-19 -11 -59 -41 -89 -67 -30 -27 -56 -48 -57
-46 -2 1 -19 40 -38 86 l-36 83 52 -7 c29 -4 87 -13 128 -19z m1039 -52 l21
-46 -170 -165 c-93 -90 -172 -164 -177 -165 -4 -1 -42 53 -84 118 l-77 119 30
35 c17 19 60 61 97 92 l66 58 137 0 137 0 20 -46z m-773 26 l113 0 40 -72 40
-72 -56 -51 c-31 -27 -70 -60 -87 -73 -17 -12 -77 -68 -133 -124 -57 -56 -105
-99 -107 -97 -11 12 -111 187 -131 231 l-23 50 90 89 c73 71 90 92 85 110 -5
19 -3 21 25 15 17 -3 82 -6 144 -6z m864 -218 c19 -31 71 -98 117 -149 l82
-91 -102 -109 c-56 -60 -122 -130 -146 -157 l-43 -48 -50 48 c-67 65 -218 240
-218 252 0 11 309 312 319 312 3 0 22 -26 41 -58z m-531 -155 c28 -49 51 -92
51 -97 0 -4 -27 -40 -59 -79 -33 -39 -103 -130 -157 -201 -78 -104 -100 -128
-111 -119 -21 18 -75 95 -142 202 l-61 99 62 65 c35 36 119 114 188 174 l125
108 27 -32 c15 -18 50 -72 77 -120z m-705 71 c12 -29 50 -99 84 -155 l60 -102
-57 -63 c-51 -56 -104 -122 -206 -259 l-30 -40 -53 107 -52 107 35 33 c23 21
35 41 35 58 0 34 -7 33 -46 -5 -37 -36 -48 -33 -64 17 l-12 36 62 63 c47 47
61 68 57 84 -4 15 14 38 73 95 43 42 81 76 84 76 3 0 17 -24 30 -52z m-485
-37 c31 -73 31 -74 12 -95 -43 -48 -56 -106 -23 -106 10 0 29 11 42 25 30 32
35 31 50 -5 14 -33 13 -34 -53 -106 -15 -17 -35 -44 -45 -61 -62 -107 -98
-162 -107 -160 -11 4 -27 85 -50 264 l-16 131 37 49 c53 70 116 144 119 141 2
-2 17 -36 34 -77z m2045 -224 l59 -53 -30 -218 c-25 -177 -34 -220 -49 -231
-11 -8 -22 -15 -25 -15 -22 -1 -319 232 -319 250 0 10 290 320 299 320 3 0 33
-24 65 -53z m-677 -50 c31 -40 90 -107 131 -149 l74 -77 -54 -68 c-30 -37
-100 -127 -155 -200 l-100 -131 -94 96 c-52 54 -116 120 -143 149 l-49 52 53
73 c101 140 263 337 272 332 4 -3 34 -38 65 -77z m-1240 -112 c-62 -61 -108
-155 -76 -155 20 0 65 38 94 79 15 23 31 41 34 41 4 0 12 -13 18 -30 11 -28 8
-34 -44 -97 -31 -38 -72 -92 -91 -120 -19 -29 -36 -53 -37 -53 -1 0 -26 36
-55 80 l-52 80 29 46 c17 25 64 88 104 140 l74 93 16 -37 c16 -37 16 -37 -14
-67z m580 22 c18 -34 64 -103 101 -153 l69 -90 -104 -140 c-57 -76 -116 -159
-131 -183 l-26 -45 -71 77 c-38 42 -93 114 -121 160 l-52 84 55 64 c30 35 69
84 86 109 34 49 148 180 157 180 3 0 20 -28 37 -63z m-443 -217 l28 -51 -30
-47 c-16 -26 -48 -80 -71 -119 -23 -40 -46 -73 -50 -73 -5 0 -24 23 -44 51
l-35 50 22 24 c11 13 48 66 81 119 33 52 63 95 66 95 3 1 18 -22 33 -49z
m1396 -14 c36 -35 217 -177 247 -195 16 -9 6 -22 -72 -98 -50 -49 -127 -133
-171 -189 l-80 -100 -65 48 c-85 65 -199 167 -199 179 0 8 64 92 274 361 12
15 23 27 26 27 2 1 20 -14 40 -33z m-1667 -201 c22 -33 56 -79 75 -103 31 -40
33 -45 22 -72 -7 -17 -14 -30 -15 -30 -2 0 -36 19 -76 43 l-73 43 -12 95 c-7
52 -17 114 -23 139 -18 76 -12 78 25 10 20 -35 54 -92 77 -125z m1074 -15 c76
-78 139 -145 141 -149 2 -5 -17 -37 -41 -72 -25 -35 -61 -97 -82 -138 l-36
-73 -81 7 c-94 8 -109 12 -102 30 3 8 -13 26 -38 44 -24 16 -70 54 -103 84
l-59 54 38 54 c55 77 220 299 223 299 1 0 64 -63 140 -140z m-683 19 c26 -44
81 -116 122 -159 l75 -78 -28 -56 c-30 -62 -36 -64 -109 -39 -60 20 -78 33
-175 129 l-77 76 67 104 c36 57 69 104 72 104 4 0 27 -36 53 -81z m1621 -134
c-11 -125 -13 -127 -81 -148 -49 -15 -168 -57 -259 -93 -11 -4 11 26 50 67
106 113 258 248 279 249 17 0 18 -6 11 -75z m-1922 -180 c67 -33 229 -87 427
-142 103 -28 371 -79 495 -93 186 -21 393 -7 574 40 68 17 206 65 364 126 l39
15 -7 -33 c-29 -143 -78 -203 -230 -280 -33 -17 -70 -38 -83 -46 -36 -24 -725
-31 -819 -8 -38 9 -108 21 -158 26 -206 24 -376 86 -518 188 -134 98 -205 185
-222 275 l-7 36 36 -34 c20 -19 69 -50 109 -70z m1270 12 c46 -40 99 -85 117
-99 l32 -25 -63 -12 c-35 -7 -129 -15 -209 -18 l-145 -6 30 36 c17 20 55 72
85 116 30 45 58 81 62 81 4 0 45 -33 91 -73z"/>
</g>
</svg>
