<?xml version="1.0" standalone="no"?>
<!DOCTYPE svg PUBLIC "-//W3C//DTD SVG 20010904//EN"
 "http://www.w3.org/TR/2001/REC-SVG-20010904/DTD/svg10.dtd">
<svg version="1.0" xmlns="http://www.w3.org/2000/svg"
 width="1200.000000pt" height="1200.000000pt" viewBox="0 0 1200.000000 1200.000000"
 preserveAspectRatio="xMidYMid meet">
<metadata>
Created by potrace 1.15, written by Peter Selinger 2001-2017
</metadata>
<g transform="translate(0.000000,1200.000000) scale(0.100000,-0.100000)"
fill="#ffffff " stroke="none">
<path d="M5804 11980 c-94 -24 -192 -75 -295 -151 -119 -88 -5251 -5220 -5339
-5339 -133 -180 -175 -310 -168 -523 4 -115 8 -143 35 -220 43 -121 85 -189
178 -282 91 -91 174 -143 290 -183 l80 -27 457 -3 458 -3 2 -2327 3 -2327 27
-80 c41 -120 92 -199 193 -300 103 -104 203 -161 339 -195 77 -19 115 -20
1257 -20 l1178 0 4 1928 c3 2173 -5 1969 84 2152 39 81 59 108 142 191 83 83
110 103 191 142 177 86 123 82 1080 82 957 0 903 4 1080 -82 81 -39 108 -59
191 -142 83 -83 103 -110 142 -191 89 -183 81 21 84 -2152 l4 -1928 1178 0
c1142 0 1180 1 1257 20 135 34 236 92 339 195 101 101 152 181 193 300 l27 80
3 2327 2 2327 458 3 457 3 80 27 c116 40 199 92 290 183 93 93 135 161 178
282 27 77 31 105 35 220 5 159 -11 243 -67 359 -71 148 -142 226 -798 884
l-633 636 0 1380 c0 1344 -1 1383 -20 1460 -11 43 -39 117 -62 164 -34 69 -60
103 -138 180 -109 109 -184 154 -324 194 l-88 26 -493 0 -493 0 -88 -26 c-137
-39 -215 -86 -320 -189 -98 -97 -145 -170 -191 -296 -26 -73 -27 -80 -31 -358
l-3 -283 -837 834 c-541 539 -867 856 -921 897 -104 77 -201 127 -299 152
-102 26 -288 26 -388 -1z"/>
</g>
</svg>