<?xml version="1.0" standalone="no"?>
<!DOCTYPE svg PUBLIC "-//W3C//DTD SVG 20010904//EN"
 "http://www.w3.org/TR/2001/REC-SVG-20010904/DTD/svg10.dtd">
<svg version="1.0" xmlns="http://www.w3.org/2000/svg"
 width="512.000000pt" height="512.000000pt" viewBox="0 0 512.000000 512.000000"
 preserveAspectRatio="xMidYMid meet">
<metadata>
Created by potrace 1.15, written by Peter Selinger 2001-2017
</metadata>
<g transform="translate(0.000000,512.000000) scale(0.100000,-0.100000)"
fill="#ffffff" stroke="none">
<path d="M910 3870 c-19 -19 -20 -33 -20 -296 l0 -276 29 -29 c40 -40 105 -41
150 -3 l31 26 0 197 0 198 98 6 c53 4 715 7 1470 7 l1372 0 0 -923 0 -924 -97
-6 c-54 -4 -147 -7 -206 -7 -107 0 -109 -1 -138 -29 -33 -34 -38 -74 -13 -110
33 -46 64 -51 344 -51 247 0 261 1 280 20 20 20 20 33 20 1100 0 1067 0 1080
-20 1100 -20 20 -33 20 -1650 20 -1617 0 -1630 0 -1650 -20z"/>
<path d="M1390 3176 c-241 -54 -387 -292 -325 -531 44 -168 176 -288 351 -318
130 -22 281 28 375 124 162 166 162 442 -1 605 -64 64 -130 101 -217 119 -81
17 -110 17 -183 1z"/>
<path d="M2443 2898 c-101 -100 -183 -187 -183 -193 0 -6 18 -29 40 -50 l41
-40 189 191 c199 199 209 215 170 254 -44 44 -61 32 -257 -162z"/>
<path d="M1975 2464 c-99 -75 -202 -149 -230 -165 -165 -96 -379 -94 -535 5
-63 41 -110 46 -140 16 -27 -27 -102 -179 -134 -272 -29 -85 -53 -217 -43
-242 6 -14 53 -16 505 -16 388 0 502 3 509 13 5 6 11 48 12 92 3 91 14 153 38
199 9 17 75 119 146 226 136 203 151 238 112 266 -10 8 -28 14 -39 14 -12 0
-102 -62 -201 -136z"/>
<path d="M2260 2144 c-58 -25 -99 -63 -126 -116 -22 -44 -26 -61 -22 -123 4
-91 40 -155 111 -199 64 -39 172 -48 238 -19 101 45 152 121 151 226 0 104
-47 182 -137 223 -59 28 -160 32 -215 8z"/>
<path d="M3015 2140 c-114 -58 -166 -174 -131 -292 53 -181 289 -240 424 -106
113 111 92 300 -42 383 -43 26 -60 30 -130 33 -65 2 -89 -2 -121 -18z"/>
<path d="M2154 1661 c-93 -58 -155 -159 -162 -267 -4 -68 -3 -72 23 -93 63
-49 261 -75 453 -60 174 13 272 56 272 118 0 97 -66 226 -148 286 -51 38 -65
39 -137 11 -51 -19 -139 -19 -190 0 -65 25 -78 26 -111 5z"/>
<path d="M2898 1645 c-82 -60 -148 -189 -148 -286 0 -36 47 -75 115 -95 175
-50 541 -26 616 42 26 23 25 106 -2 179 -23 63 -111 165 -158 185 -25 10 -38
9 -86 -9 -66 -25 -144 -26 -200 -5 -72 28 -86 27 -137 -11z"/>
</g>
</svg>