<?xml version="1.0" standalone="no"?>
<!DOCTYPE svg PUBLIC "-//W3C//DTD SVG 20010904//EN"
 "http://www.w3.org/TR/2001/REC-SVG-20010904/DTD/svg10.dtd">
<svg version="1.0" xmlns="http://www.w3.org/2000/svg"
 width="512.000000pt" height="512.000000pt" viewBox="0 0 512.000000 512.000000"
 preserveAspectRatio="xMidYMid meet">
<metadata>
Created by potrace 1.15, written by Peter Selinger 2001-2017
</metadata>
<g transform="translate(0.000000,512.000000) scale(0.100000,-0.100000)"
fill="#ffffff" stroke="none">
<path d="M2310 4899 c-145 -15 -334 -57 -493 -109 -958 -316 -1607 -1217
-1607 -2230 0 -898 510 -1716 1315 -2111 1164 -570 2576 -87 3146 1076 570
1164 87 2576 -1076 3146 -390 191 -849 272 -1285 228z m519 -444 c845 -124
1502 -781 1626 -1626 19 -136 19 -401 0 -539 -45 -314 -190 -658 -374 -890
l-20 -25 -1343 1343 -1343 1343 25 20 c228 181 575 329 882 373 131 19 416 20
547 1z m-424 -2055 l1340 -1341 -25 -20 c-232 -184 -576 -329 -890 -374 -138
-19 -403 -19 -539 0 -845 124 -1502 781 -1626 1626 -19 135 -19 400 0 536 34
241 124 499 241 696 45 75 145 217 153 217 3 0 609 -603 1346 -1340z"/>
</g>
</svg>
