<?xml version="1.0" standalone="no"?>
<!DOCTYPE svg PUBLIC "-//W3C//DTD SVG 20010904//EN"
 "http://www.w3.org/TR/2001/REC-SVG-20010904/DTD/svg10.dtd">
<svg version="1.0" xmlns="http://www.w3.org/2000/svg"
 width="512.000000pt" height="512.000000pt" viewBox="0 0 512.000000 512.000000"
 preserveAspectRatio="xMidYMid meet">
<metadata>
Created by potrace 1.15, written by Peter Selinger 2001-2017
</metadata>
<g transform="translate(0.000000,512.000000) scale(0.100000,-0.100000)"
fill="#ffffff" stroke="none">
<path d="M2305 5114 c-333 -34 -638 -125 -932 -279 -660 -344 -1144 -965
-1311 -1685 -49 -208 -57 -292 -57 -590 0 -298 8 -382 57 -590 168 -720 650
-1341 1311 -1685 256 -134 491 -211 792 -262 159 -26 631 -26 790 0 301 51
536 128 792 262 661 344 1143 965 1311 1685 49 208 57 292 57 590 0 298 -8
382 -57 590 -168 720 -650 1341 -1311 1685 -253 132 -489 210 -787 261 -92 15
-555 28 -655 18z m420 -754 c343 -33 644 -150 925 -359 339 -253 595 -655 680
-1069 106 -515 -12 -1037 -329 -1462 -253 -339 -655 -595 -1069 -680 -391 -80
-794 -31 -1150 140 -676 326 -1086 1033 -1023 1767 20 246 69 427 171 641 183
381 474 671 860 856 293 140 610 196 935 166z"/>
<path d="M3320 3524 c-22 -9 -211 -191 -505 -484 l-470 -470 -250 251 c-138
138 -268 260 -290 272 -52 27 -145 29 -195 3 -42 -22 -379 -353 -423 -416 -29
-41 -32 -52 -32 -120 0 -68 3 -79 32 -120 46 -66 1022 -1035 1063 -1056 50
-26 143 -24 195 3 59 32 1490 1468 1510 1515 20 50 19 124 -4 173 -23 49 -413
439 -454 454 -41 16 -136 13 -177 -5z"/>
</g>
</svg>
