<?xml version="1.0" standalone="no"?>
<!DOCTYPE svg PUBLIC "-//W3C//DTD SVG 20010904//EN"
 "http://www.w3.org/TR/2001/REC-SVG-20010904/DTD/svg10.dtd">
<svg version="1.0" xmlns="http://www.w3.org/2000/svg"
 width="180.000000pt" height="180.000000pt" viewBox="0 0 200.000000 200.000000"
 preserveAspectRatio="xMidYMid meet">
<metadata>
Created by potrace 1.15, written by Peter Selinger 2001-2017
</metadata>
<g transform="translate(0.000000,200.000000) scale(0.100000,-0.100000)"
fill="#ffffff" stroke="none">
<path d="M264 1627 c-2 -7 -3 -60 -2 -118 l3 -104 35 0 35 0 3 78 3 77 709 0
710 0 0 -133 c0 -129 1 -134 25 -157 l25 -23 0 -397 c0 -372 -1 -398 -18 -413
-17 -16 -82 -17 -733 -17 -498 0 -718 3 -726 11 -6 6 -23 9 -39 7 -27 -3 -29
-6 -29 -48 l0 -45 780 -3 779 -2 38 37 38 37 0 436 0 436 -30 29 -29 28 -3
146 -3 146 -783 3 c-642 2 -783 0 -788 -11z"/>
<path d="M788 1390 c-60 -32 -83 -74 -83 -152 0 -52 5 -73 21 -94 36 -49 70
-67 133 -72 74 -5 121 10 168 54 l36 34 42 -39 c48 -44 89 -56 164 -49 61 6
108 39 132 92 55 120 -27 246 -160 246 -58 0 -101 -18 -148 -62 l-32 -31 -33
33 c-18 18 -47 39 -65 46 -47 20 -131 17 -175 -6z m152 -65 c16 -8 41 -31 56
-50 l27 -36 -20 -27 c-70 -94 -189 -97 -224 -4 -33 87 72 163 161 117z m376
-19 c25 -24 34 -43 34 -66 0 -49 -55 -100 -108 -100 -45 0 -99 32 -122 73 -13
24 -13 29 2 54 25 43 75 73 120 73 32 0 47 -7 74 -34z"/>
<path d="M100 1240 l0 -140 190 0 190 0 0 140 0 140 -190 0 -190 0 0 -140z"/>
<path d="M265 1068 c-3 -8 -4 -92 -3 -188 l3 -175 35 0 35 0 0 185 0 185 -33
3 c-20 2 -34 -2 -37 -10z"/>
<path d="M860 730 l0 -90 450 0 450 0 0 90 0 90 -450 0 -450 0 0 -90z"/>
<path d="M200 570 l0 -110 170 0 170 0 0 110 0 110 -170 0 -170 0 0 -110z"/>
</g>
</svg>