<?xml version="1.0" standalone="no"?>
<!DOCTYPE svg PUBLIC "-//W3C//DTD SVG 20010904//EN"
 "http://www.w3.org/TR/2001/REC-SVG-20010904/DTD/svg10.dtd">
<svg version="1.0" xmlns="http://www.w3.org/2000/svg"
 width="256.000000pt" height="256.000000pt" viewBox="0 0 256.000000 256.000000"
 preserveAspectRatio="xMidYMid meet">

<g transform="translate(0.000000,256.000000) scale(0.100000,-0.100000)"
fill="#ffffff " stroke="none">
<path d="M1015 2064 c-146 -31 -302 -130 -391 -247 -156 -205 -186 -474 -80
-702 69 -147 174 -253 321 -325 191 -93 402 -92 595 3 47 23 88 43 91 45 4 2
105 -95 225 -215 121 -120 230 -226 244 -235 14 -10 42 -18 63 -18 55 0 107
52 107 107 0 21 -7 50 -16 63 -9 14 -115 124 -235 245 l-219 220 45 90 c72
147 91 288 59 443 -76 368 -439 604 -809 526z m264 -159 c187 -44 342 -199
386 -386 88 -373 -251 -712 -624 -624 -187 44 -342 199 -386 386 -88 373 251
712 624 624z"/>
</g>
</svg>
