<?xml version="1.0" standalone="no"?>
<!DOCTYPE svg PUBLIC "-//W3C//DTD SVG 20010904//EN"
 "http://www.w3.org/TR/2001/REC-SVG-20010904/DTD/svg10.dtd">
<svg version="1.0" xmlns="http://www.w3.org/2000/svg"
 width="512.000000pt" height="512.000000pt" viewBox="0 0 512.000000 512.000000"
 preserveAspectRatio="xMidYMid meet">

<g transform="translate(0.000000,512.000000) scale(0.100000,-0.100000)"
fill="#000000" stroke="none">
<path d="M2485 5100 c-26 -13 -456 -436 -1252 -1232 -1051 -1052 -1213 -1218
-1222 -1253 -8 -28 -11 -421 -11 -1259 0 -1213 0 -1220 21 -1262 27 -58 76
-87 143 -87 29 0 63 6 76 13 14 7 543 529 1175 1161 l1150 1149 1150 -1151
c673 -674 1163 -1157 1182 -1165 48 -21 101 -17 148 11 81 47 75 -60 75 1340
0 1063 -2 1250 -14 1273 -23 42 -2447 2460 -2479 2472 -43 16 -98 12 -142 -10z
m2315 -3575 l0 -970 -1072 1072 c-606 605 -1085 1077 -1101 1083 -40 14 -92
13 -135 -5 -26 -11 -350 -329 -1104 -1083 l-1068 -1067 0 965 0 965 1122 1122
1123 1123 1117 -1117 1118 -1118 0 -970z"/>
</g>
</svg>
