<?xml version="1.0" standalone="no"?>
<!DOCTYPE svg PUBLIC "-//W3C//DTD SVG 20010904//EN"
 "http://www.w3.org/TR/2001/REC-SVG-20010904/DTD/svg10.dtd">
<svg version="1.0" xmlns="http://www.w3.org/2000/svg"
 width="512.000000pt" height="512.000000pt" viewBox="0 0 512.000000 512.000000"
 preserveAspectRatio="xMidYMid meet">
<metadata>
Created by potrace 1.15, written by Peter Selinger 2001-2017
</metadata>
<g transform="translate(0.000000,512.000000) scale(0.100000,-0.100000)"
fill="#000000" stroke="none">
<path d="M2320 4153 c-302 -31 -587 -117 -885 -263 -440 -217 -851 -557 -1211
-1000 -107 -133 -224 -299 -224 -320 0 -23 125 -201 248 -355 122 -152 463
-495 607 -609 356 -284 737 -481 1114 -576 226 -57 293 -64 586 -65 273 0 310
3 510 45 689 145 1382 627 1905 1325 136 182 153 210 146 237 -16 60 -296 414
-477 603 -532 552 -1143 887 -1772 970 -108 14 -444 19 -547 8z m532 -339
c456 -59 896 -265 1294 -608 186 -159 391 -386 518 -574 l50 -72 -50 -72
c-225 -332 -575 -661 -924 -869 -372 -222 -757 -329 -1180 -329 -423 0 -808
107 -1180 329 -349 208 -714 552 -927 872 l-46 69 46 69 c117 177 334 417 521
577 395 340 832 546 1286 608 146 20 439 20 592 0z"/>
<path d="M2361 3505 c-90 -20 -157 -43 -226 -78 -242 -120 -422 -333 -501
-592 -26 -84 -28 -103 -28 -270 -1 -159 2 -189 22 -259 97 -334 345 -583 677
-678 70 -20 102 -23 255 -23 153 0 185 3 255 23 332 95 580 344 677 678 20 69
23 101 23 254 0 153 -3 185 -23 254 -80 275 -259 491 -507 611 -146 71 -215
87 -400 91 -115 3 -178 -1 -224 -11z"/>
</g>
</svg>